<svg width="121" height="44" viewBox="0 0 121 44" fill="none" xmlns="http://www.w3.org/2000/svg">
<path d="M0.476562 43V3H16.2578C19.2917 3 21.8763 3.57943 24.0117 4.73828C26.1471 5.88411 27.7747 7.47917 28.8945 9.52344C30.0273 11.5547 30.5938 13.8984 30.5938 16.5547C30.5938 19.2109 30.0208 21.5547 28.875 23.5859C27.7292 25.6172 26.069 27.1992 23.8945 28.332C21.7331 29.4648 19.1159 30.0312 16.043 30.0312H5.98438V23.2539H14.6758C16.3034 23.2539 17.6445 22.974 18.6992 22.4141C19.7669 21.8411 20.5612 21.0534 21.082 20.0508C21.6159 19.0352 21.8828 17.8698 21.8828 16.5547C21.8828 15.2266 21.6159 14.0677 21.082 13.0781C20.5612 12.0755 19.7669 11.3008 18.6992 10.7539C17.6315 10.194 16.2773 9.91406 14.6367 9.91406H8.93359V43H0.476562ZM35.9307 43V13H43.9971V18.2344H44.3096C44.8564 16.3724 45.7744 14.9661 47.0635 14.0156C48.3525 13.0521 49.8369 12.5703 51.5166 12.5703C51.9333 12.5703 52.3825 12.5964 52.8643 12.6484C53.346 12.7005 53.7692 12.7721 54.1338 12.8633V20.2461C53.7432 20.1289 53.2028 20.0247 52.5127 19.9336C51.8226 19.8424 51.1911 19.7969 50.6182 19.7969C49.3942 19.7969 48.3005 20.0638 47.3369 20.5977C46.3864 21.1185 45.6312 21.8477 45.0713 22.7852C44.5244 23.7227 44.251 24.8034 44.251 26.0273V43H35.9307ZM70.5938 43.5859C67.5599 43.5859 64.9362 42.9414 62.7227 41.6523C60.5221 40.3503 58.8229 38.5404 57.625 36.2227C56.4271 33.8919 55.8281 31.1901 55.8281 28.1172C55.8281 25.0182 56.4271 22.3099 57.625 19.9922C58.8229 17.6615 60.5221 15.8516 62.7227 14.5625C64.9362 13.2604 67.5599 12.6094 70.5938 12.6094C73.6276 12.6094 76.2448 13.2604 78.4453 14.5625C80.6589 15.8516 82.3646 17.6615 83.5625 19.9922C84.7604 22.3099 85.3594 25.0182 85.3594 28.1172C85.3594 31.1901 84.7604 33.8919 83.5625 36.2227C82.3646 38.5404 80.6589 40.3503 78.4453 41.6523C76.2448 42.9414 73.6276 43.5859 70.5938 43.5859ZM70.6328 37.1406C72.013 37.1406 73.1654 36.75 74.0898 35.9688C75.0143 35.1745 75.7109 34.0937 76.1797 32.7266C76.6615 31.3594 76.9023 29.8034 76.9023 28.0586C76.9023 26.3138 76.6615 24.7578 76.1797 23.3906C75.7109 22.0234 75.0143 20.9427 74.0898 20.1484C73.1654 19.3542 72.013 18.957 70.6328 18.957C69.2396 18.957 68.0677 19.3542 67.1172 20.1484C66.1797 20.9427 65.4701 22.0234 64.9883 23.3906C64.5195 24.7578 64.2852 26.3138 64.2852 28.0586C64.2852 29.8034 64.5195 31.3594 64.9883 32.7266C65.4701 34.0937 66.1797 35.1745 67.1172 35.9688C68.0677 36.75 69.2396 37.1406 70.6328 37.1406Z" fill="black"/>
<path d="M106.902 13V19.25H88.3867V13H106.902ZM92.625 43V10.832C92.625 8.65755 93.0482 6.85416 93.8945 5.42187C94.7539 3.98958 95.9258 2.91536 97.4102 2.19922C98.8945 1.48307 100.581 1.125 102.469 1.125C103.745 1.125 104.91 1.22265 105.965 1.41797C107.033 1.61328 107.827 1.78906 108.348 1.94531L106.863 8.19531C106.538 8.09114 106.134 7.99349 105.652 7.90234C105.184 7.8112 104.702 7.76562 104.207 7.76562C102.983 7.76562 102.13 8.05208 101.648 8.625C101.167 9.1849 100.926 9.97266 100.926 10.9883V43H92.625ZM111.985 43V13H120.306V43H111.985ZM116.165 9.13281C114.928 9.13281 113.867 8.72265 112.981 7.90234C112.109 7.06901 111.673 6.07292 111.673 4.91406C111.673 3.76823 112.109 2.78516 112.981 1.96484C113.867 1.13151 114.928 0.714842 116.165 0.714842C117.402 0.714842 118.457 1.13151 119.329 1.96484C120.215 2.78516 120.657 3.76823 120.657 4.91406C120.657 6.07292 120.215 7.06901 119.329 7.90234C118.457 8.72265 117.402 9.13281 116.165 9.13281Z" fill="#FF0000"/>
</svg>
