<svg width="128" height="44" viewBox="0 0 128 44" fill="none" xmlns="http://www.w3.org/2000/svg">
<path d="M0.476562 43V3H16.2578C19.2917 3 21.8763 3.57943 24.0117 4.73828C26.1471 5.88411 27.7747 7.47917 28.8945 9.52344C30.0273 11.5547 30.5938 13.8984 30.5938 16.5547C30.5938 19.2109 30.0208 21.5547 28.875 23.5859C27.7292 25.6172 26.069 27.1992 23.8945 28.332C21.7331 29.4648 19.1159 30.0312 16.043 30.0312H5.98438V23.2539H14.6758C16.3034 23.2539 17.6445 22.974 18.6992 22.4141C19.7669 21.8411 20.5612 21.0534 21.082 20.0508C21.6159 19.0352 21.8828 17.8698 21.8828 16.5547C21.8828 15.2266 21.6159 14.0677 21.082 13.0781C20.5612 12.0755 19.7669 11.3008 18.6992 10.7539C17.6315 10.194 16.2773 9.91406 14.6367 9.91406H8.93359V43H0.476562ZM37.5807 43V13H45.6471V18.2344H45.9596C46.5064 16.3724 47.4244 14.9661 48.7135 14.0156C50.0025 13.0521 51.4869 12.5703 53.1666 12.5703C53.5833 12.5703 54.0325 12.5964 54.5143 12.6484C54.996 12.7005 55.4192 12.7721 55.7838 12.8633V20.2461C55.3932 20.1289 54.8528 20.0247 54.1627 19.9336C53.4726 19.8424 52.8411 19.7969 52.2682 19.7969C51.0442 19.7969 49.9505 20.0638 48.9869 20.5977C48.0364 21.1185 47.2812 21.8477 46.7213 22.7852C46.1744 23.7227 45.901 24.8034 45.901 26.0273V43H37.5807ZM73.8937 43.5859C70.8599 43.5859 68.2362 42.9414 66.0227 41.6523C63.8221 40.3503 62.1229 38.5404 60.925 36.2227C59.7271 33.8919 59.1281 31.1901 59.1281 28.1172C59.1281 25.0182 59.7271 22.3099 60.925 19.9922C62.1229 17.6615 63.8221 15.8516 66.0227 14.5625C68.2362 13.2604 70.8599 12.6094 73.8937 12.6094C76.9276 12.6094 79.5448 13.2604 81.7453 14.5625C83.9589 15.8516 85.6646 17.6615 86.8625 19.9922C88.0604 22.3099 88.6594 25.0182 88.6594 28.1172C88.6594 31.1901 88.0604 33.8919 86.8625 36.2227C85.6646 38.5404 83.9589 40.3503 81.7453 41.6523C79.5448 42.9414 76.9276 43.5859 73.8937 43.5859ZM73.9328 37.1406C75.313 37.1406 76.4654 36.75 77.3898 35.9688C78.3143 35.1745 79.0109 34.0937 79.4797 32.7266C79.9615 31.3594 80.2023 29.8034 80.2023 28.0586C80.2023 26.3138 79.9615 24.7578 79.4797 23.3906C79.0109 22.0234 78.3143 20.9427 77.3898 20.1484C76.4654 19.3542 75.313 18.957 73.9328 18.957C72.5396 18.957 71.3677 19.3542 70.4172 20.1484C69.4797 20.9427 68.7701 22.0234 68.2883 23.3906C67.8195 24.7578 67.5852 26.3138 67.5852 28.0586C67.5852 29.8034 67.8195 31.3594 68.2883 32.7266C68.7701 34.0937 69.4797 35.1745 70.4172 35.9688C71.3677 36.75 72.5396 37.1406 73.9328 37.1406Z" fill="black"/>
<path d="M111.852 13V19.25H93.3367V13H111.852ZM97.575 43V10.832C97.575 8.65755 97.9982 6.85416 98.8445 5.42187C99.7039 3.98958 100.876 2.91536 102.36 2.19922C103.845 1.48307 105.531 1.125 107.419 1.125C108.695 1.125 109.86 1.22265 110.915 1.41797C111.983 1.61328 112.777 1.78906 113.298 1.94531L111.813 8.19531C111.488 8.09114 111.084 7.99349 110.602 7.90234C110.134 7.8112 109.652 7.76562 109.157 7.76562C107.933 7.76562 107.08 8.05208 106.598 8.625C106.117 9.1849 105.876 9.97266 105.876 10.9883V43H97.575ZM118.585 43V13H126.906V43H118.585ZM122.765 9.13281C121.528 9.13281 120.467 8.72265 119.581 7.90234C118.709 7.06901 118.273 6.07292 118.273 4.91406C118.273 3.76823 118.709 2.78516 119.581 1.96484C120.467 1.13151 121.528 0.714842 122.765 0.714842C124.002 0.714842 125.057 1.13151 125.929 1.96484C126.815 2.78516 127.257 3.76823 127.257 4.91406C127.257 6.07292 126.815 7.06901 125.929 7.90234C125.057 8.72265 124.002 9.13281 122.765 9.13281Z" fill="#FF0000"/>
</svg>
